HIERARCHY
ROOT Hips
{
	OFFSET 0.000000 0.000000 0.000000 
	CHANNELS 6 Xposition Yposition Zposition Yrotation Zrotation Xrotation 
	JOINT Lumbar
	{
		OFFSET 0.000000 0.000000 0.000000 
		CHANNELS 3 Zrotation Xrotation Yrotation
		JOINT Neck
		{
			OFFSET 0.000000 0.445665 0.000000 
			CHANNELS 3 Zrotation Xrotation Yrotation
			End Site
			{
				OFFSET 0.000000 0.227535 0.000000 
			}
		}
		JOINT RightShoulder
		{
			OFFSET 0.019635 0.377685 0.194865 
			CHANNELS 3 Zrotation Xrotation Yrotation
			JOINT RightElbow
			{
				OFFSET 0.000000 -0.243375 0.000000 
				CHANNELS 2 Zrotation Yrotation
				JOINT RightWrist
				{
					OFFSET 0.000000 -0.264825 0.000000 
					CHANNELS 2 Zrotation Xrotation
					End Site
					{
						OFFSET 0.006600 -0.176220 0.000990 
					}
				}
			}
		}
		JOINT LeftShoulder
		{
			OFFSET 0.019635 0.377685 -0.194865 
			CHANNELS 3 Zrotation Xrotation Yrotation
			JOINT LeftElbow
			{
				OFFSET 0.000000 -0.243375 0.000000 
				CHANNELS 2 Zrotation Yrotation
				JOINT LeftWrist
				{
					OFFSET 0.000000 -0.264825 0.000000 
					CHANNELS 2 Zrotation Xrotation
					End Site
					{
						OFFSET 0.006600 -0.176220 -0.000990 
					}
				}
			}
		}
	}
	JOINT RightHip
	{
		OFFSET 0.052140 -0.069960 0.075570 
		CHANNELS 3 Zrotation Xrotation Yrotation
		JOINT RightKnee
		{
			OFFSET 0.000000 -0.402270 0.000000 
			CHANNELS 1 Zrotation
			JOINT RightAnkle
			{
				OFFSET 0.000000 -0.404085 0.000000 
				CHANNELS 3 Zrotation Xrotation Yrotation
				End Site
				{
					OFFSET 0.204105 -0.089430 0.008415 
				}
			}
		}
	}
	JOINT LeftHip
	{
		OFFSET 0.052140 -0.069960 -0.075570 
		CHANNELS 3 Zrotation Xrotation Yrotation
		JOINT LeftKnee
		{
			OFFSET 0.000000 -0.402270 0.000000 
			CHANNELS 1 Zrotation
			JOINT LeftAnkle
			{
				OFFSET 0.000000 -0.404085 0.000000 
				CHANNELS 3 Zrotation Xrotation Yrotation
				End Site
				{
					OFFSET 0.204105 -0.089430 -0.008415 
				}
			}
		}
	}
}
MOTION
Frames: 30
Frame Time: 0.02
1.51627 0.29586 -1.09066 844.67813 -49.00568 -14.74859 52.43477 -0.173 6.80905 -2.6964 -3.56117 -0.83079 -44.23037 7.31512 39.24485 36.91197 98.75212 -22.64539 -6.75007 -41.08992 0.15622 -37.29833 42.70632 -104.64152 -18.36474 8.71378 33.32404 5.02695 -7.36886 -36.52414 -9.17668 -2.65029 -2.12805 65.04637 10.27939 8.25338 -18.58422 -11.97903 3.80404 2.91553
1.4972 0.29413 -1.09938 844.93618 -48.60445 -14.34905 52.50317 -0.35055 5.70232 -2.82216 -3.70371 -0.83079 -44.29374 6.70698 39.65773 37.07066 99.30524 -23.3528 -6.74988 -41.32093 -0.00696 -38.1046 42.78517 -105.1536 -19.17712 8.62374 34.55191 4.0573 -7.21735 -40.10152 -10.18424 -2.64405 -2.16772 64.1013 9.87626 7.78138 -20.42747 -11.55669 4.28409 3.1764
1.47891 0.29235 -1.10711 845.23101 -48.08829 -13.99145 52.32539 -0.4755 4.65772 -2.84859 -3.8324 -0.83079 -44.38221 6.0189 40.2528 37.20043 99.96608 -24.24025 -6.73977 -41.49699 -0.16642 -39.12146 42.76536 -105.32235 -20.10594 8.41747 36.17373 3.03109 -7.57472 -44.18109 -11.29139 -2.60792 -2.19434 62.80288 9.46096 9.00774 -21.76078 -11.07477 4.00864 2.98485
1.46034 0.29059 -1.11527 845.51199 -47.62846 -13.62761 52.25801 -0.61867 3.57513 -2.92666 -3.96729 -0.83079 -44.45651 5.37485 40.74451 37.34193 100.55617 -25.00013 -6.73607 -41.69677 -0.33733 -40.01361 42.77679 -105.63939 -20.94169 8.26379 37.62806 2.07169 -7.67746 -47.98398 -12.29457 -2.59235 -2.22828 61.67397 9.05374 9.37863 -23.32371 -10.62679 4.0986 3.01261
1.44143 0.28887 -1.1235 845.78755 -47.14993 -13.20418 52.19869 -0.78706 2.52621 -2.97944 -4.1035 -0.83079 -44.53617 4.69514 41.33028 37.48316 101.21976 -25.9257 -6.72184 -41.90311 -0.46964 -41.02597 42.84472 -105.97439 -21.93227 8.10505 39.04255 0.93727 -7.86889 -52.01683 -13.54707 -2.54888 -2.25729 60.51671 8.62908 10.0444 -24.92783 -10.14965 4.11676 2.9959
1.42343 0.28704 -1.13135 846.08396 -46.68549 -12.9165 52.06417 -0.89081 1.4249 -3.0604 -4.23275 -0.83079 -44.61354 4.07398 41.7584 37.61935 101.76412 -26.56118 -6.7281 -42.08252 -0.68015 -41.83789 42.77314 -106.19655 -22.63583 7.93229 40.62985 0.15358 -8.00448 -55.66613 -14.30611 -2.55521 -2.29287 59.33257 8.2417 10.52583 -26.31154 -9.71909 4.09549 2.95844
1.40769 0.28493 -1.13835 846.38746 -46.26457 -12.99865 51.77226 -0.81815 0.16391 -3.24429 -4.35327 -0.83079 -44.67173 3.60863 41.73686 37.76135 101.93994 -26.33828 -6.7935 -42.19795 -1.11103 -42.05542 42.32615 -106.18927 -22.50571 7.74 42.60027 0.36453 -7.80856 -58.3024 -13.64484 -2.71441 -2.35311 58.14104 7.94458 10.03241 -27.22471 -9.43288 4.16642 2.9837
1.39286 0.28272 -1.145 846.7171 -45.86603 -13.21572 51.41436 -0.6838 -1.14989 -3.45929 -4.46594 -0.83079 -44.72832 3.20963 41.54628 37.89715 101.99797 -25.82899 -6.87987 -42.28883 -1.61948 -42.0619 41.74564 -106.08526 -22.09677 7.53997 44.72803 0.92873 -7.54877 -60.49942 -12.48981 -2.92335 -2.41985 56.93665 7.6892 9.31215 -27.92669 -9.19554 4.2178 3.00012
1.37767 0.28056 -1.15181 847.06022 -45.47261 -13.3686 51.09319 -0.58464 -2.43995 -3.65956 -4.57748 -0.83079 -44.79147 2.79733 41.40973 38.02962 102.11956 -25.45601 -6.95731 -42.39232 -2.09018 -42.15922 41.23446 -106.02549 -21.81288 7.35041 46.78267 1.32314 -7.35452 -62.78932 -11.58115 -3.10382 -2.4812 55.74956 7.42552 8.73599 -28.71229 -8.93495 4.26472 3.01269
1.36227 0.27836 -1.1586 847.29698 -45.01081 -13.53548 50.73622 -0.45407 -3.73121 -3.85992 -4.70824 -0.83079 -44.83278 2.31196 41.36667 38.19032 102.19798 -25.03964 -7.03314 -42.48648 -2.57253 -42.28753 40.67976 -105.94161 -21.49902 7.12777 48.86347 1.7535 -7.02674 -65.5601 -10.58035 -3.30712 -2.55188 54.50238 7.11566 8.04381 -29.53311 -8.67619 4.34225 3.04304
1.34752 0.27623 -1.16535 847.76192 -44.69801 -13.70408 50.43985 -0.37418 -5.02788 -4.06749 -4.79745 -0.83079 -44.91638 1.9945 41.09788 38.28684 102.34236 -24.6725 -7.11581 -42.59659 -3.04754 -42.29557 40.18974 -105.9029 -21.23111 6.97318 50.91516 2.19499 -6.95159 -67.20264 -9.65653 -3.47619 -2.60549 53.38135 6.91283 7.51892 -30.2366 -8.4266 4.36084 3.03996
1.33431 0.27434 -1.17214 848.84247 -44.7947 -13.84921 50.34151 -0.45621 -6.37164 -4.29849 -4.77258 -0.83079 -45.13911 2.13443 40.14476 38.24626 102.64947 -24.25657 -7.22685 -42.74156 -3.49525 -42.04974 39.87237 -105.8932 -20.70409 7.01374 52.90396 2.56999 -7.60773 -65.96778 -9.03818 -3.53917 -2.60989 52.61858 6.98873 7.49247 -30.67161 -8.18553 4.22711 2.94963
1.3217 0.27252 -1.17889 850.15329 -45.0411 -13.98994 50.30551 -0.59039 -7.71005 -4.53399 -4.70652 -0.83079 -45.40049 2.4397 38.98682 38.13518 103.03368 -23.94262 -7.34164 -42.90568 -3.92993 -41.68626 39.63182 -105.95145 -20.30608 7.12245 54.84538 2.94647 -8.50618 -63.5858 -8.52166 -3.57292 -2.60065 51.98436 7.17173 7.63654 -30.99757 -7.95325 4.03763 2.82778
1.30882 0.27063 -1.18565 851.36349 -45.21642 -14.12984 50.23193 -0.69642 -9.02271 -4.76069 -4.66014 -0.83079 -45.62933 2.663 37.99101 38.03011 103.41612 -23.7536 -7.4449 -43.07235 -4.36369 -41.35541 39.38261 -106.06493 -20.16046 7.1973 56.77003 3.32947 -9.28978 -61.6407 -7.97302 -3.61108 -2.59345 51.28768 7.31071 7.70772 -31.37339 -7.72037 3.87349 2.72056
1.29599 0.26888 -1.19246 852.55667 -45.40273 -14.28802 50.19258 -0.81892 -10.45963 -5.01723 -4.60921 -0.83079 -45.9203 2.91694 36.70485 38.03099 103.66177 -22.84888 -7.58938 -43.19411 -4.83206 -41.09652 39.02017 -105.83147 -18.73778 7.2848 58.86295 3.69379 -10.12524 -60.03668 -7.33676 -3.66011 -2.58922 50.60453 7.43347 7.75615 -31.74024 -7.47462 3.7074 2.61096
1.28317 0.26687 -1.19914 853.84084 -45.60462 -14.40332 50.10057 -0.92046 -11.63144 -5.21192 -4.55837 -0.83079 -46.09241 3.14604 35.96826 37.7992 104.20252 -23.4411 -7.64985 -43.40992 -5.22043 -40.67355 38.91064 -106.31274 -19.95199 7.36127 60.59103 4.09356 -10.86862 -57.45597 -6.92698 -3.7144 -2.59403 49.92752 7.61244 7.89079 -32.10269 -7.25738 3.53346 2.4996
1.27025 0.26414 -1.20552 855.3098 -45.78521 -14.41731 49.82317 -0.95053 -12.10944 -5.23785 -4.51536 -0.83079 -45.91471 3.26027 36.87753 36.90245 105.62268 -28.32729 -7.46658 -43.91901 -5.42405 -39.72944 39.50734 -108.97198 -28.913 7.39943 61.33086 4.58128 -11.67372 -52.46204 -7.00079 -3.47496 -2.46241 49.20553 7.94166 8.25824 -32.4814 -7.11477 3.34404 2.38668
1.25731 0.26114 -1.21176 856.8642 -45.98108 -14.38451 49.49546 -0.95811 -12.31383 -5.20055 -4.47427 -0.83079 -45.61799 3.34394 38.33494 35.78168 107.32225 -34.6812 -7.20046 -44.51554 -5.54171 -38.64137 40.35184 -112.30915 -40.43358 7.42276 61.70345 5.10382 -12.31729 -46.53161 -7.3198 -3.29227 -2.36684 48.49062 8.31989 8.70079 -32.86014 -7.00076 3.15009 2.2739
1.24437 0.25826 -1.21805 858.38591 -46.1884 -14.36206 49.20756 -0.97696 -12.61878 -5.19015 -4.43413 -0.83079 -45.38413 3.4459 39.48873 34.78927 108.83969 -40.24565 -6.97939 -45.04645 -5.67586 -37.68628 41.06584 -115.18934 -50.45566 7.4469 62.23768 5.61596 -12.77714 -41.02337 -7.61013 -3.30058 -2.36816 47.79321 8.66113 9.08594 -33.23903 -6.87453 2.96347 2.16416
1.23151 0.25544 -1.22439 859.88951 -46.32452 -14.38606 48.85086 -0.99348 -13.02329 -5.18809 -4.3853 -0.83079 -45.11593 3.53766 40.85821 33.68134 110.59226 -46.33889 -6.72759 -45.68533 -5.9022 -36.44993 41.85706 -118.69332 -61.89067 7.49759 62.79033 6.10883 -14.29272 -35.46758 -7.56871 -2.4263 -1.9082 47.01476 9.06695 9.57491 -33.61375 -6.74493 2.75319 2.04058
1.21844 0.2524 -1.23061 861.44841 -46.60907 -14.30168 48.62391 -1.00842 -13.15641 -5.15308 -4.35501 -0.83079 -44.88879 3.638 41.92036 32.76294 111.92084 -51.66736 -6.51964 -46.12227 -5.91965 -35.75648 42.54641 -121.06706 -70.99764 7.48966 63.22078 6.64585 -13.61584 -29.83058 -8.25719 -3.36196 -2.3959 46.40267 9.35012 9.86359 -33.99803 -6.62957 2.59111 1.94582
1.20492 0.24889 -1.2365 863.13578 -47.31238 -13.93423 48.77468 -1.02752 -12.59945 -5.0466 -4.38012 -0.83079 -44.81809 3.79722 41.92259 32.4118 112.00628 -54.61803 -6.45634 -45.95816 -5.35206 -36.68839 42.88278 -120.07739 -72.97192 7.31399 63.37736 7.33176 -6.50813 -23.97068 -11.05792 -9.64424 -5.68007 46.26895 9.2683 9.57574 -34.41466 -6.54213 2.57018 1.93462
1.19116 0.24517 -1.24229 864.8754 -48.16137 -13.45865 49.05636 -1.04477 -11.78058 -4.90829 -4.42303 -0.83079 -44.78974 3.96077 41.61163 32.26071 111.65569 -56.73219 -6.43925 -45.59114 -4.58267 -38.15626 43.10886 -117.94138 -72.52776 7.08141 63.42721 8.05434 2.7253 -18.10896 -14.55566 -17.6779 -9.88172 46.29811 9.06368 9.08264 -34.84038 -6.46907 2.59696 1.95188
1.17741 0.24152 -1.24814 866.59203 -48.9347 -13.02917 49.27284 -1.0609 -11.08625 -4.78199 -4.45507 -0.83079 -44.733 4.1025 41.49627 32.02657 111.50699 -59.16565 -6.39898 -45.33218 -3.925 -39.31844 43.3934 -116.37938 -73.24276 6.88063 63.54534 8.73668 10.71212 -12.40426 -17.63025 -24.67283 -13.53965 46.23818 8.92388 8.68758 -35.25859 -6.39196 2.59754 1.9536
1.16405 0.23797 -1.25391 868.30829 -49.74881 -12.60999 49.51078 -1.08541 -10.35781 -4.66419 -4.49937 -0.83079 -44.71184 4.3244 41.17682 31.75471 111.3525 -61.90044 -6.36558 -45.01208 -3.1801 -40.73367 43.65508 -114.61488 -73.79816 6.65381 63.57347 9.51933 19.88349 -6.00987 -21.16004 -32.69726 -17.73352 46.24128 8.747 8.28012 -35.69097 -6.30432 2.61676 1.96611
1.14982 0.23417 -1.25983 870.03699 -50.51208 -12.14544 49.73692 -1.09122 -9.6434 -4.52154 -4.52175 -0.83079 -44.62677 4.3841 41.19868 31.60769 111.10264 -63.79846 -6.32922 -44.7666 -2.56978 -41.75613 43.93037 -112.9939 -74.07243 6.46853 63.76058 10.10183 27.09718 -1.05995 -23.90725 -38.98948 -21.02914 46.1528 8.61857 7.84249 -36.09605 -6.24297 2.60887 1.96315
1.13344 0.22971 -1.26619 871.78173 -51.10041 -11.57271 49.88823 -1.05499 -9.0186 -4.32218 -4.48451 -0.83079 -44.36873 3.96496 42.25456 31.79598 110.6958 -63.49974 -6.2804 -44.80508 -2.38465 -41.51987 44.30615 -112.0207 -74.18464 6.40672 64.48146 10.11843 28.31641 -0.14198 -24.2884 -40.09133 -21.61065 45.76296 8.64494 7.42575 -36.4254 -6.24096 2.51148 1.90831
1.11617 0.22503 -1.2727 873.53688 -51.63152 -10.96037 50.02492 -0.99816 -8.42037 -4.09883 -4.42376 -0.83079 -44.04381 3.38762 43.65729 32.09861 110.20631 -62.39139 -6.22655 -44.91967 -2.34234 -40.87867 44.69011 -111.23249 -74.07045 6.38987 65.35426 9.93331 27.49856 -0.67526 -23.85966 -39.38292 -21.25595 45.27767 8.72591 6.97604 -36.72817 -6.26766 2.38549 1.83723
1.09921 0.22048 -1.27915 875.29155 -52.18892 -10.37207 50.17579 -0.94522 -7.82058 -3.88362 -4.3701 -0.83079 -43.73986 2.90309 44.89115 32.32176 109.75389 -61.71339 -6.17024 -44.98078 -2.23137 -40.45172 45.04727 -110.37644 -74.0447 6.35571 66.1154 9.84272 27.66455 -0.52012 -23.82751 -39.49184 -21.33847 44.84073 8.78733 6.50462 -37.03989 -6.28608 2.2749 1.77516
1.08263 0.21577 -1.28555 877.03378 -52.75316 -9.75302 50.30102 -0.91635 -7.16887 -3.6774 -4.33156 -0.83079 -43.47342 2.33253 46.16978 32.66032 109.28997 -60.76811 -6.1337 -45.11572 -2.12606 -39.91554 45.50381 -109.41642 -74.03764 6.30576 67.05582 9.73997 27.68243 -0.48372 -23.71358 -39.69377 -21.41209 44.38535 8.82159 6.17775 -37.35871 -6.28045 2.15687 1.70762
